<?xml version="1.0" encoding="UTF-8"?>
<svg version="1.1" xmlns="http://www.w3.org/2000/svg" width="110" height="138">
<path d="M0 0 C1.00385742 0.00394775 2.00771484 0.00789551 3.04199219 0.01196289 C10.88497154 0.16327643 17.41355529 1.3985533 24.6875 4.4375 C27.95310684 5.52603561 28.68274475 5.37784337 31.84765625 4.44140625 C32.64107422 4.21259766 33.43449219 3.98378906 34.25195312 3.74804688 C35.07630859 3.50119141 35.90066406 3.25433594 36.75 3 C38.38609223 2.51999473 40.02278491 2.04202998 41.66015625 1.56640625 C42.74695679 1.24265015 42.74695679 1.24265015 43.85571289 0.91235352 C45.6875 0.4375 45.6875 0.4375 47.6875 0.4375 C47.6875 1.0975 47.6875 1.7575 47.6875 2.4375 C42.7375 4.4175 37.7875 6.3975 32.6875 8.4375 C34.193125 9.71625 35.69875 10.995 37.25 12.3125 C46.66282413 20.8333026 53.22830418 30.45124074 54.1015625 43.34765625 C54.70521999 58.49259961 52.15004384 69.94621231 41.6875 81.4375 C41.09195313 82.12457031 40.49640625 82.81164062 39.8828125 83.51953125 C30.47598494 93.72652464 17.49328012 99.99373833 3.65234375 100.81640625 C-6.7367297 101.16298971 -15.60884924 100.37269387 -25.3125 96.4375 C-26.7975 95.9425 -26.7975 95.9425 -28.3125 95.4375 C-34.84346342 99.26446725 -39.16102129 105.99768266 -43.4296875 112.05859375 C-44.05101562 112.84363281 -44.67234375 113.62867188 -45.3125 114.4375 C-45.9725 114.4375 -46.6325 114.4375 -47.3125 114.4375 C-44.22188667 106.0030183 -38.59337451 98.63869251 -33.3125 91.4375 C-33.89257812 91.025 -34.47265625 90.6125 -35.0703125 90.1875 C-44.71489114 83.05751447 -51.17271386 74.09764596 -54.3125 62.4375 C-55.37008118 51.6483166 -55.61725796 40.13403086 -50.3125 30.4375 C-49.58353516 29.06078125 -49.58353516 29.06078125 -48.83984375 27.65625 C-41.20006054 14.50787606 -28.6248851 5.17968621 -14.03369141 1.02636719 C-9.3580587 0.01455792 -4.76840942 -0.04835548 0 0 Z " fill="#E95702" transform="translate(54.3125,15.5625)"/>
<path d="M0 0 C1.45212891 -0.01740234 1.45212891 -0.01740234 2.93359375 -0.03515625 C9.58176155 -0.0083851 15.25135049 1.12158505 21.5 3.375 C21.5 4.035 21.5 4.695 21.5 5.375 C22.82 6.035 24.14 6.695 25.5 7.375 C24.47398682 7.81199219 24.47398682 7.81199219 23.42724609 8.2578125 C-8.76686148 21.02668582 -8.76686148 21.02668582 -33.5 44.375 C-34.5628887 48.42726317 -34.81787046 50.42138861 -33.5 54.375 C-24.18232934 54.81405254 -16.67066675 53.41049483 -7.87109375 50.5078125 C-2.4983824 48.78526382 1.85080098 48.06115561 7.5 48.375 C6.90018246 56.75176218 2.39980886 60.8532064 -3.5 66.375 C-6.27287647 68.75823625 -9.09463403 71.051726 -11.96484375 73.31640625 C-14.81259559 75.6288334 -17.34526312 78.11198126 -19.87109375 80.765625 C-21.5819487 82.4559661 -23.40269852 83.85367834 -25.3125 85.3125 C-28.54021303 87.99278152 -29.07201792 90.15245065 -29.796875 94.3125 C-30.98462632 97.79657055 -33.66809882 99.77506486 -36.33203125 102.2109375 C-39.42392867 105.29726393 -41.6873666 108.81316609 -44.0546875 112.46875 C-44.53164063 113.0978125 -45.00859375 113.726875 -45.5 114.375 C-46.16 114.375 -46.82 114.375 -47.5 114.375 C-44.40938667 105.9405183 -38.78087451 98.57619251 -33.5 91.375 C-34.08007812 90.9625 -34.66015625 90.55 -35.2578125 90.125 C-44.90239114 82.99501447 -51.36021386 74.03514596 -54.5 62.375 C-55.55758118 51.5858166 -55.80475796 40.07153086 -50.5 30.375 C-49.77103516 28.99828125 -49.77103516 28.99828125 -49.02734375 27.59375 C-41.39272709 14.4542679 -28.81652934 5.11527749 -14.234375 0.95947266 C-9.49164637 -0.05428559 -4.83217091 -0.05790884 0 0 Z " fill="#F07206" transform="translate(54.5,15.625)"/>
<path d="M0 0 C0 0.66 0 1.32 0 2 C-2.43707838 2.9802271 -4.87463945 3.95922171 -7.3125 4.9375 C-8.34793945 5.35418945 -8.34793945 5.35418945 -9.40429688 5.77929688 C-12.25267773 6.92140128 -15.08790694 8.02930231 -18 9 C-18.495 7.515 -18.495 7.515 -19 6 C-19 6.99 -19 7.98 -19 9 C-19.69222656 9.268125 -20.38445312 9.53625 -21.09765625 9.8125 C-34.66758719 15.24762386 -46.59701975 21.83627569 -58 31 C-59.34771484 32.04414062 -59.34771484 32.04414062 -60.72265625 33.109375 C-63.25560289 35.21219862 -64.59078598 37.03323363 -66 40 C-66 41.32 -66 42.64 -66 44 C-57.10633727 44.57239254 -49.47174242 42.87801914 -40.9375 40.5 C-24.19367328 35.8494358 -24.19367328 35.8494358 -17 37 C-15.515 37.99 -15.515 37.99 -14 39 C-13.24701074 42.95319363 -14.03153678 45.49669151 -16 48.875 C-24.56416304 61.36637593 -37.72280319 68.57791522 -50.5625 76 C-56.21564001 79.27188261 -61.71177101 82.68860798 -67.0625 86.4375 C-67.96560913 87.0572168 -67.96560913 87.0572168 -68.88696289 87.68945312 C-70.72051991 88.96644126 -70.72051991 88.96644126 -73 91 C-73 91.99 -73 92.98 -73 94 C-74.485 94.495 -74.485 94.495 -76 95 C-76.66 94.67 -77.32 94.34 -78 94 C-77.93278382 89.62422686 -76.80107351 87.44249632 -73.7890625 84.44921875 C-72.41447523 83.18060039 -71.02562096 81.92731597 -69.625 80.6875 C-68.90054688 80.02669434 -68.17609375 79.36588867 -67.4296875 78.68505859 C-63.38902147 75.02857823 -59.25748189 71.52498906 -55 68.125 C-48.06000846 62.55625868 -41.54707442 57.08906224 -40 48 C-47.49115466 49.16189338 -54.66618251 50.94585292 -61.93359375 53.09765625 C-67.74029671 54.80638031 -72.91509505 55.70637371 -79 55 C-81.6875 53.4375 -81.6875 53.4375 -83 51 C-83.41495637 46.85043625 -82.73312626 45.03945601 -80.3359375 41.640625 C-65.68660631 24.48758994 -44.52392123 15.14585787 -24 7 C-24.66 6.01 -25.32 5.02 -26 4 C-25.20078125 4.21527344 -24.4015625 4.43054688 -23.578125 4.65234375 C-18.86033903 5.11073125 -15.23071756 3.94646357 -10.75 2.5625 C-9.14121179 2.08266364 -7.53186185 1.60470535 -5.921875 1.12890625 C-5.21643555 0.91306885 -4.51099609 0.69723145 -3.78417969 0.47485352 C-2 0 -2 0 0 0 Z " fill="#0B2146" transform="translate(102,16)"/>
<path d="M0 0 C0 0.66 0 1.32 0 2 C-2.43707838 2.9802271 -4.87463945 3.95922171 -7.3125 4.9375 C-8.34793945 5.35418945 -8.34793945 5.35418945 -9.40429688 5.77929688 C-12.25267773 6.92140128 -15.08790694 8.02930231 -18 9 C-18.495 7.515 -18.495 7.515 -19 6 C-19 6.99 -19 7.98 -19 9 C-19.69222656 9.268125 -20.38445312 9.53625 -21.09765625 9.8125 C-34.66758719 15.24762386 -46.59701975 21.83627569 -58 31 C-58.89847656 31.69609375 -59.79695313 32.3921875 -60.72265625 33.109375 C-63.25560289 35.21219862 -64.59078598 37.03323363 -66 40 C-66 41.32 -66 42.64 -66 44 C-58.20250405 44.27741088 -58.20250405 44.27741088 -50.5625 42.9375 C-47.12934226 42.03403744 -46.18604249 41.99867236 -43 43 C-45.97 43.495 -45.97 43.495 -49 44 C-49 44.99 -49 45.98 -49 47 C-51.70716242 47.90238747 -53.23776768 48.11851302 -56.01171875 48.09765625 C-57.14770508 48.09282227 -57.14770508 48.09282227 -58.30664062 48.08789062 C-59.48516602 48.07532227 -59.48516602 48.07532227 -60.6875 48.0625 C-61.48478516 48.05798828 -62.28207031 48.05347656 -63.10351562 48.04882812 C-65.06904257 48.0370585 -67.03453085 48.01912348 -69 48 C-69 45.69 -69 43.38 -69 41 C-69.66 40.67 -70.32 40.34 -71 40 C-71.5 38 -71.5 38 -72 36 C-72.66 35.67 -73.32 35.34 -74 35 C-59.30179968 22.07136188 -41.94242737 14.397713 -24 7 C-24.66 6.01 -25.32 5.02 -26 4 C-25.20078125 4.21527344 -24.4015625 4.43054688 -23.578125 4.65234375 C-18.86033903 5.11073125 -15.23071756 3.94646357 -10.75 2.5625 C-9.14121179 2.08266364 -7.53186185 1.60470535 -5.921875 1.12890625 C-5.21643555 0.91306885 -4.51099609 0.69723145 -3.78417969 0.47485352 C-2 0 -2 0 0 0 Z " fill="#2C4762" transform="translate(102,16)"/>
<path d="M0 0 C0 0.66 0 1.32 0 2 C-2.43707838 2.9802271 -4.87463945 3.95922171 -7.3125 4.9375 C-8.34793945 5.35418945 -8.34793945 5.35418945 -9.40429688 5.77929688 C-12.25267773 6.92140128 -15.08790694 8.02930231 -18 9 C-18.495 7.515 -18.495 7.515 -19 6 C-19 6.99 -19 7.98 -19 9 C-19.69222656 9.268125 -20.38445312 9.53625 -21.09765625 9.8125 C-32.64046641 14.43570723 -43.58708651 20.19972996 -54 27 C-54 25.02 -54 23.04 -54 21 C-44.13898015 15.9542314 -34.24251452 11.22503724 -24 7 C-24.66 6.01 -25.32 5.02 -26 4 C-25.20078125 4.21527344 -24.4015625 4.43054688 -23.578125 4.65234375 C-18.86033903 5.11073125 -15.23071756 3.94646357 -10.75 2.5625 C-9.14121179 2.08266364 -7.53186185 1.60470535 -5.921875 1.12890625 C-5.21643555 0.91306885 -4.51099609 0.69723145 -3.78417969 0.47485352 C-2 0 -2 0 0 0 Z " fill="#223248" transform="translate(102,16)"/>
<path d="M0 0 C-0.1875 1.8125 -0.1875 1.8125 -1 4 C-2.66279327 5.0064275 -4.33022874 6.00519262 -6 7 C-7.76114781 8.50502886 -9.49016634 10.04835421 -11.1875 11.625 C-15.80316344 15.90158172 -15.80316344 15.90158172 -18 17 C-18.12375 16.360625 -18.2475 15.72125 -18.375 15.0625 C-18.58125 14.381875 -18.7875 13.70125 -19 13 C-19.66 12.67 -20.32 12.34 -21 12 C-4.60872127 -1.53624042 -4.60872127 -1.53624042 0 0 Z " fill="#1A62A9" transform="translate(49,39)"/>
<path d="M0 0 C-3.08052969 3.55445734 -5.58025231 4.58568074 -10 6 C-12.85364233 7.76925824 -15.53042677 9.6377578 -18.1875 11.6875 C-20 13 -20 13 -23 14 C-22.49396008 11.83125748 -22.00016187 10.00032373 -21 8 C-19.34634594 6.97862543 -17.67623498 5.98387706 -16 5 C-14.82885665 4.13100094 -13.66238903 3.25567466 -12.5 2.375 C-8.3241742 -0.63231923 -5.00922737 -1.66974246 0 0 Z " fill="#FA7F03" transform="translate(40,22)"/>
<path d="M0 0 C0.66 0 1.32 0 2 0 C1.67 1.65 1.34 3.3 1 5 C1.66 5.33 2.32 5.66 3 6 C2.25556641 6.69222656 2.25556641 6.69222656 1.49609375 7.3984375 C-3.22760307 11.93390352 -6.99466151 16.59640755 -10.5546875 22.09375 C-11.27011719 23.03734375 -11.27011719 23.03734375 -12 24 C-12.66 24 -13.32 24 -14 24 C-12.61517761 20.22073103 -10.87013795 17.0030073 -8.6875 13.625 C-7.76324219 12.19414063 -7.76324219 12.19414063 -6.8203125 10.734375 C-5.27533384 8.4135916 -3.6959609 6.13384308 -2.0625 3.875 C0.09715131 1.45429279 0.09715131 1.45429279 0 0 Z " fill="#5C2406" transform="translate(21,106)"/>
<path d="M0 0 C0.99 0 1.98 0 3 0 C1.48451505 3.54963854 -0.60075999 5.89958735 -3.3125 8.625 C-4.45138672 9.78902344 -4.45138672 9.78902344 -5.61328125 10.9765625 C-8.01896354 13.01607711 -10.02402174 14.02029742 -13 15 C-13 12 -13 12 -12 10 C-11.34 10 -10.68 10 -10 10 C-10 9.34 -10 8.68 -10 8 C-8.06640625 6.30859375 -8.06640625 6.30859375 -5.5625 4.4375 C-2.67307373 2.34532911 -2.67307373 2.34532911 0 0 Z " fill="#A23405" transform="translate(96,92)"/>
<path d="M0 0 C0 0.66 0 1.32 0 2 C-2.43707838 2.9802271 -4.87463945 3.95922171 -7.3125 4.9375 C-8.34793945 5.35418945 -8.34793945 5.35418945 -9.40429688 5.77929688 C-12.25267773 6.92140128 -15.08790694 8.02930231 -18 9 C-18.33 8.01 -18.66 7.02 -19 6 C-19.33 6.99 -19.66 7.98 -20 9 C-20 8.34 -20 7.68 -20 7 C-21.98 6.34 -23.96 5.68 -26 5 C-23 4 -23 4 -20 5 C-17.98066872 4.6824038 -17.98066872 4.6824038 -15.83984375 4.00390625 C-15.04642578 3.77509766 -14.25300781 3.54628906 -13.43554688 3.31054688 C-12.61119141 3.06369141 -11.78683594 2.81683594 -10.9375 2.5625 C-9.30140777 2.08249473 -7.66471509 1.60452998 -6.02734375 1.12890625 C-4.94054321 0.80515015 -4.94054321 0.80515015 -3.83178711 0.47485352 C-2 0 -2 0 0 0 Z " fill="#492007" transform="translate(102,16)"/>
<path d="M0 0 C0 0.66 0 1.32 0 2 C-3.12202006 3.50626117 -6.24808399 5.00393243 -9.375 6.5 C-10.26445313 6.92925781 -11.15390625 7.35851562 -12.0703125 7.80078125 C-12.92109375 8.20683594 -13.771875 8.61289062 -14.6484375 9.03125 C-15.43395996 9.40830078 -16.21948242 9.78535156 -17.02880859 10.17382812 C-19 11 -19 11 -21 11 C-19.94145502 7.96901095 -19.07144429 7.04389455 -16.28515625 5.33203125 C-15.22167969 4.83058594 -14.15820312 4.32914063 -13.0625 3.8125 C-12.00160156 3.30332031 -10.94070312 2.79414063 -9.84765625 2.26953125 C-6.19743088 0.6422017 -4.05741132 0 0 0 Z " fill="#2A2735" transform="translate(82,23)"/>
<path d="M0 0 C0.66 0.33 1.32 0.66 2 1 C-3.28 6.28 -8.56 11.56 -14 17 C-13.34 18.65 -12.68 20.3 -12 22 C-13.65 22 -15.3 22 -17 22 C-17.00491979 18.21668089 -16.81216961 16.01815647 -14.41748047 13.01611328 C-12.3176741 10.95192272 -10.15869854 8.995379 -7.9375 7.0625 C-7.17888672 6.37865234 -6.42027344 5.69480469 -5.63867188 4.99023438 C-3.77196842 3.3113753 -1.89286923 1.64922315 0 0 Z " fill="#31222F" transform="translate(41,89)"/>
<path d="M0 0 C-0.84304687 0.55429687 -1.68609375 1.10859375 -2.5546875 1.6796875 C-3.65039062 2.40414063 -4.74609375 3.12859375 -5.875 3.875 C-6.96554688 4.59429688 -8.05609375 5.31359375 -9.1796875 6.0546875 C-11.98427498 7.86388308 -11.98427498 7.86388308 -14 10 C-14.7425 10.268125 -15.485 10.53625 -16.25 10.8125 C-19.79848988 12.34480245 -22.1079235 14.44421147 -25 17 C-21.75588971 9.62848206 -8.07275282 -2.69091761 0 0 Z " fill="#682E04" transform="translate(36,20)"/>
<path d="M0 0 C0.66 0.33 1.32 0.66 2 1 C2.375 3.1875 2.375 3.1875 2 6 C0.16038352 7.99022836 -1.79186148 9.38989899 -4 11 C-4.12375 10.360625 -4.2475 9.72125 -4.375 9.0625 C-4.58125 8.381875 -4.7875 7.70125 -5 7 C-5.66 6.67 -6.32 6.34 -7 6 C-4.69 4.02 -2.38 2.04 0 0 Z " fill="#204F7D" transform="translate(35,45)"/>
<path d="M0 0 C0.75 1.625 0.75 1.625 1 4 C-0.6875 6.875 -0.6875 6.875 -3 10 C-3.75645302 11.12067115 -4.50677572 12.24551221 -5.25 13.375 C-5.8275 14.24125 -6.405 15.1075 -7 16 C-8 13 -8 13 -6.85546875 10.37109375 C-6.02982422 8.91896484 -6.02982422 8.91896484 -5.1875 7.4375 C-4.64480469 6.46683594 -4.10210937 5.49617188 -3.54296875 4.49609375 C-2 2 -2 2 0 0 Z " fill="#873805" transform="translate(10,37)"/>
<path d="M0 0 C1.75570312 0.02707031 1.75570312 0.02707031 3.546875 0.0546875 C4.88492188 0.08949219 4.88492188 0.08949219 6.25 0.125 C6.58 1.115 6.91 2.105 7.25 3.125 C-5.41970387 3.30951025 -5.41970387 3.30951025 -10.75 2.125 C-7.15537669 -0.13498595 -4.18404325 -0.08368087 0 0 Z " fill="#F55101" transform="translate(50.75,111.875)"/>
<path d="M0 0 C0.99 0.33 1.98 0.66 3 1 C2.09507813 1.65355469 2.09507813 1.65355469 1.171875 2.3203125 C-4.23861785 6.26413503 -4.23861785 6.26413503 -8.375 11.4375 C-8.91125 12.283125 -9.4475 13.12875 -10 14 C-10.99 14 -11.98 14 -13 14 C-11.43416404 9.96278439 -8.55826135 7.52929418 -5.375 4.75 C-4.859375 4.29109375 -4.34375 3.8321875 -3.8125 3.359375 C-2.5465398 2.23407704 -1.27392058 1.11627823 0 0 Z " fill="#203751" transform="translate(45,43)"/>
<path d="M0 0 C0.66 0.66 1.32 1.32 2 2 C4.10820797 1.6814823 4.10820797 1.6814823 6 1 C3.75539393 3.49560036 1.61479403 4.8705484 -1.4375 6.25 C-2.19933594 6.60578125 -2.96117188 6.9615625 -3.74609375 7.328125 C-6.27972334 8.08338373 -7.54185126 7.87351072 -10 7 C-10 6.34 -10 5.68 -10 5 C-7.36 4.67 -4.72 4.34 -2 4 C-2.33 3.34 -2.66 2.68 -3 2 C-2.01 1.34 -1.02 0.68 0 0 Z " fill="#7D2C06" transform="translate(77,106)"/>
<path d="M0 0 C0.309375 0.639375 0.61875 1.27875 0.9375 1.9375 C4.09768575 5.09768575 7.68333908 4.81900793 12 5 C10 7 10 7 7.3984375 7.1953125 C6.40070312 7.17210938 5.40296875 7.14890625 4.375 7.125 C2.87066406 7.09792969 2.87066406 7.09792969 1.3359375 7.0703125 C0.56507812 7.04710938 -0.20578125 7.02390625 -1 7 C-0.67 4.69 -0.34 2.38 0 0 Z " fill="#18416C" transform="translate(34,57)"/>
<path d="M0 0 C0.33 0.99 0.66 1.98 1 3 C-2.63 6.96 -6.26 10.92 -10 15 C-10.66 14.67 -11.32 14.34 -12 14 C-11.36191406 13.30132812 -10.72382812 12.60265625 -10.06640625 11.8828125 C-9.24011719 10.97273438 -8.41382813 10.06265625 -7.5625 9.125 C-6.32693359 7.76761719 -6.32693359 7.76761719 -5.06640625 6.3828125 C-2.99092058 4.18862073 -2.99092058 4.18862073 -2 2 C-1.34 2 -0.68 2 0 2 C0 1.34 0 0.68 0 0 Z " fill="#29466C" transform="translate(63,67)"/>
<path d="M0 0 C0.66 0.33 1.32 0.66 2 1 C0.95199219 1.99580078 0.95199219 1.99580078 -0.1171875 3.01171875 C-1.48230469 4.33623047 -1.48230469 4.33623047 -2.875 5.6875 C-3.77992187 6.55761719 -4.68484375 7.42773438 -5.6171875 8.32421875 C-7.89263982 10.87943979 -8.98704352 12.76901814 -10 16 C-10.75 14.375 -10.75 14.375 -11 12 C-8.31697751 6.85754022 -4.50583621 3.56922981 0 0 Z " fill="#DD9217" transform="translate(46,44)"/>
<path d="M0 0 C0.99 0.33 1.98 0.66 3 1 C2.67 2.32 2.34 3.64 2 5 C0.68 5.33 -0.64 5.66 -2 6 C-2 5.34 -2 4.68 -2 4 C-3.32 4.33 -4.64 4.66 -6 5 C-2.25 1.125 -2.25 1.125 0 0 Z " fill="#2C5881" transform="translate(46,38)"/>
<path d="M0 0 C0.66 0.99 1.32 1.98 2 3 C1.21654285 4.17219543 0.42297164 5.33763668 -0.375 6.5 C-0.81585937 7.1496875 -1.25671875 7.799375 -1.7109375 8.46875 C-2.13632813 8.9740625 -2.56171875 9.479375 -3 10 C-3.66 10 -4.32 10 -5 10 C-3.66511872 6.40608886 -2.03977277 3.24509304 0 0 Z " fill="#170B05" transform="translate(12,120)"/>
<path d="M0 0 C0.66 0.33 1.32 0.66 2 1 C1.835 1.78375 1.67 2.5675 1.5 3.375 C0.9376293 5.88208039 0.9376293 5.88208039 1 8 C0.01 8 -0.98 8 -2 8 C-2.66 6.68 -3.32 5.36 -4 4 C-2.68 2.68 -1.36 1.36 0 0 Z " fill="#C14506" transform="translate(31,104)"/>
<path d="M0 0 C0.66 0 1.32 0 2 0 C1.67 1.65 1.34 3.3 1 5 C1.66 5.33 2.32 5.66 3 6 C2.34 6.66 1.68 7.32 1 8 C0.01 8 -0.98 8 -2 8 C-1.47731534 5.23723823 -0.89130413 2.6739124 0 0 Z " fill="#732C06" transform="translate(21,106)"/>
<path d="M0 0 C0.33 1.32 0.66 2.64 1 4 C-1.475 5.485 -1.475 5.485 -4 7 C-4 5.02 -4 3.04 -4 1 C-2.68 0.67 -1.36 0.34 0 0 Z " fill="#1B3D64" transform="translate(52,36)"/>
<path d="M0 0 C0 0.66 0 1.32 0 2 C-2.64 2.33 -5.28 2.66 -8 3 C-8.33 2.34 -8.66 1.68 -9 1 C-5.8035914 -0.06546953 -3.34252724 -0.07427838 0 0 Z " fill="#082852" transform="translate(62,61)"/>
<path d="M0 0 C-0.375 1.9375 -0.375 1.9375 -1 4 C-1.99 4.495 -1.99 4.495 -3 5 C-3 4.34 -3 3.68 -3 3 C-4.32 2.67 -5.64 2.34 -7 2 C-2.25 0 -2.25 0 0 0 Z " fill="#23629E" transform="translate(44,42)"/>
<path d="M0 0 C0.99 0 1.98 0 3 0 C3 0.99 3 1.98 3 3 C1.02 3.66 -0.96 4.32 -3 5 C-1.125 1.125 -1.125 1.125 0 0 Z " fill="#132645" transform="translate(64,29)"/>
<path d="M0 0 C0 0.66 0 1.32 0 2 C-3.3125 3.125 -3.3125 3.125 -7 4 C-7.99 3.34 -8.98 2.68 -10 2 C-8.7090864 1.66376204 -7.41723903 1.33110751 -6.125 1 C-5.40570313 0.814375 -4.68640625 0.62875 -3.9453125 0.4375 C-2 0 -2 0 0 0 Z " fill="#130A04" transform="translate(102,16)"/>
<path d="M0 0 C0.66 0.33 1.32 0.66 2 1 C1.34 2.65 0.68 4.3 0 6 C-0.66 6 -1.32 6 -2 6 C-2.33 5.34 -2.66 4.68 -3 4 C-3.66 3.67 -4.32 3.34 -5 3 C-2.625 1.4375 -2.625 1.4375 0 0 Z " fill="#2F4051" transform="translate(55,33)"/>
</svg>
